<?xml version="1.0" encoding="UTF-8"?>
<svg width="256px" height="256px" viewBox="0 0 256 256" version="1.1" xmlns="http://www.w3.org/2000/svg">
    <g>
        <polygon fill="#E44D26" points="255.555,0 232.893,232.893 127.5,256 22.107,232.893 0,0"></polygon>
        <polygon fill="#F16529" points="127.5,19.857 127.5,236.175 211.574,216.471 232.893,19.857"></polygon>
        <polygon fill="#EBEBEB" points="127.5,124.731 76.688,124.731 73.198,86.064 127.5,86.064 127.5,47.982 127.5,47.963 47.917,47.963 48.797,57.397 57.261,151.813 127.5,151.813"></polygon>
        <polygon fill="#EBEBEB" points="127.5,190.912 127.5,190.912 89.336,180.667 86.678,151.813 60.125,151.813 48.797,57.397 127.5,57.397"></polygon>
        <polygon fill="#FFFFFF" points="127.5,124.731 178.312,124.731 174.823,86.064 127.5,86.064 127.5,47.982 127.5,47.963 207.083,47.963 206.203,57.397 197.739,151.813 127.5,151.813"></polygon>
        <polygon fill="#FFFFFF" points="127.5,190.912 127.5,190.912 165.664,180.667 168.321,151.813 194.875,151.813 206.203,57.397 127.5,57.397"></polygon>
    </g>
</svg>
