<?xml version="1.0" encoding="UTF-8"?>
<svg width="256px" height="256px" viewBox="0 0 256 256" version="1.1" xmlns="http://www.w3.org/2000/svg">
    <g>
        <rect fill="#F7DF1E" width="256" height="256"></rect>
        <path d="M67.312,213.932 L86.902,202.076 C91.642,210.777 95.928,218.447 105.23,218.447 C114.193,218.447 119.961,214.711 119.961,201.784 L119.961,117.085 L144.076,117.085 L144.076,202.138 C144.076,227.235 128.381,239.007 106.398,239.007 C86.533,239.007 73.707,228.51 67.312,213.932" fill="#000000"></path>
        <path d="M152.381,211.354 L171.969,200.013 C178.492,210.516 186.962,218.447 201.333,218.447 C213.446,218.447 221.365,212.107 221.365,203.406 C221.365,192.9 213.446,189.655 199.513,184.297 L192.072,181.593 C169.902,173.144 155.109,162.445 155.109,137.745 C155.109,114.96 172.497,97.869 200.322,97.869 C220.961,97.869 235.818,105.499 246.276,124.24 L227.588,136.355 C222.341,127.585 216.843,124.24 200.322,124.24 C182.741,124.24 176.373,130.685 176.373,137.745 C176.373,146.517 182.741,149.762 195.903,154.711 L203.344,157.414 C230.161,167.444 244.954,177.833 244.954,203.097 C244.954,230.653 223.269,245 202.258,245 C181.802,245 164.442,232.885 152.381,211.354" fill="#000000"></path>
    </g>
</svg>
