<?xml version="1.0" encoding="UTF-8"?>
<svg width="256px" height="256px" viewBox="0 0 256 256" version="1.1" xmlns="http://www.w3.org/2000/svg">
    <g>
        <path d="M119.878,0.0001 L7.33333333,64.0001 C2.83333333,66.5001 0,71.1667667 0,76.1667667 L0,179.833233 C0,184.833233 2.83333333,189.5001 7.33333333,192.0001 L119.878,256.0001 C124.378,258.5001 129.622,258.5001 134.122,256.0001 L246.667,192.0001 C251.167,189.5001 254,184.833233 254,179.833233 L254,76.1667667 C254,71.1667667 251.167,66.5001 246.667,64.0001 L134.122,0.0001 C131.872,-0.9999 129.622,-0.9999 127.372,-0.9999 C125.122,-0.9999 122.128,0.0001 119.878,0.0001 Z" fill="#539E43"></path>
        <path d="M247.5,188.5001 C252,186.0001 254.833333,181.333433 254.833333,176.333433 L254.833333,72.6667667 C254.833333,67.6667667 252,62.9999 247.5,60.4999 L134.955,0.4999 C132.705,-0.5001 130.455,-0.5001 128.205,-0.5001 C125.955,-0.5001 122.961,0.4999 120.711,0.4999 L7.33333333,60.4999 C2.83333333,62.9999 0,67.6667667 0,72.6667667 L0,176.333433 C0,181.333433 2.83333333,186.0001 7.33333333,188.5001 L120.711,252.5001 C123.128,253.833433 125.955,254.5001 128.205,254.5001 C130.455,254.5001 133.372,253.833433 134.955,252.5001 L247.5,188.5001 Z" fill="#333333"></path>
        <path d="M127.372,239.333433 C125.122,239.333433 122.872,238.666767 120.622,237.333433 L73.7886667,209.333433 C69.2886667,206.833433 67.2886667,205.5001 65.2886667,204.166767 C64.6223333,203.5001 63.9556667,203.5001 63.2886667,203.5001 C60.3723333,203.5001 57.4556667,205.5001 57.4556667,208.666767 L57.4556667,208.666767 C57.4556667,210.666767 58.7886667,212.0001 60.7886667,213.333433 L112.622,244.333433 C114.872,245.666767 117.122,246.333433 119.372,246.333433 C121.622,246.333433 123.872,245.666767 126.122,244.333433 L238.667,180.333433 C240.667,179.0001 241.333667,177.666767 241.333667,175.666767 L241.333667,71.9999 C241.333667,69.9999 240.667,68.6667667 238.667,67.3333333 L126.122,3.33333333 C123.872,1.99999999 121.622,1.33333333 119.372,1.33333333 C117.122,1.33333333 114.872,1.99999999 112.622,3.33333333 L0.0776666666,67.3333333 C-1.92233333,68.6667667 -2.58899999,69.9999 -2.58899999,71.9999 L-2.58899999,175.666767 C-2.58899999,177.666767 -1.92233333,179.0001 0.0776666666,180.333433 L46.9113333,208.333433 C58.1223333,214.0001 65.4556667,208.333433 65.4556667,202.666767 L65.4556667,79.3333333 C65.4556667,77.9999 66.1223333,76.6667667 67.4556667,76.6667667 L76.1223333,76.6667667 C77.4556667,76.6667667 78.7886667,77.9999 78.7886667,79.3333333 L78.7886667,202.666767 C78.7886667,215.333433 71.7886667,222.333433 59.7886667,222.333433 C55.2886667,222.333433 51.4556667,222.333433 41.4556667,217.333433 L-3.33333333,190.0001 C-7.83333333,187.5001 -10.6666667,182.833433 -10.6666667,177.833433 L-10.6666667,74.1667667 C-10.6666667,69.1667667 -7.83333333,64.4999 -3.33333333,61.9999 L109.211,0.9999 C113.711,-1.5001 118.955,-1.5001 123.455,0.9999 L236,64.9999 C240.5,67.4999 243.333333,72.1667667 243.333333,77.1667667 L243.333333,180.833233 C243.333333,185.833233 240.5,190.5001 236,193.0001 L123.455,257.0001 C121.205,238.666767 118.955,239.333433 127.372,239.333433 Z" fill="#539E43"></path>
    </g>
</svg>
