<?xml version="1.0" encoding="UTF-8"?>
<svg width="256px" height="256px" viewBox="0 0 256 256" version="1.1" xmlns="http://www.w3.org/2000/svg">
    <g>
        <path d="M210.483381,73.8236374 C207.827698,72.9095503 205.075867,72.0446761 202.24247,71.2267368 C202.708172,69.3261098 203.135596,67.4500894 203.515631,65.6059664 C209.753843,35.3248922 205.675082,10.9302478 191.747328,2.89849283 C178.392359,-4.80289661 156.551327,3.22703567 134.492936,22.4237776 C132.371761,24.2697233 130.244662,26.2241201 128.118477,28.2723861 C126.701777,26.917204 125.287358,25.6075897 123.876584,24.3549348 C100.758745,3.82852863 77.5866802,-4.82157937 63.6725966,3.23341515 C50.3303869,10.9571328 46.3792156,33.8904224 51.9945178,62.5880206 C52.5367729,65.3599011 53.1706189,68.1905639 53.8873982,71.068617 C50.6078941,71.9995641 47.4418534,72.9920277 44.4125156,74.0478303 C17.3093297,83.497195 0,98.3066828 0,113.667995 C0,129.533287 18.5815786,145.446423 46.8116526,155.095373 C49.0394553,155.856809 51.3511025,156.576778 53.7333796,157.260293 C52.9600965,160.37302 52.2875179,163.423318 51.7229345,166.398431 C46.3687351,194.597975 50.5500231,216.989464 63.8566899,224.664425 C77.6012619,232.590464 100.66852,224.443422 123.130185,204.809231 C124.905501,203.257196 126.687196,201.611293 128.472081,199.886102 C130.785552,202.113904 133.095375,204.222319 135.392897,206.199955 C157.14963,224.922338 178.637969,232.482469 191.932332,224.786092 C205.663234,216.837268 210.125675,192.78347 204.332202,163.5181 C203.88974,161.283006 203.374826,158.99961 202.796573,156.675661 C204.416503,156.196743 206.006814,155.702335 207.557482,155.188332 C236.905331,145.46465 256,129.745175 256,113.667995 C256,98.2510906 238.132466,83.3418093 210.483381,73.8236374 L210.483381,73.8236374 Z" fill="#00D8FF"></path>
        <path d="M201.345213,142.241309 C199.916538,142.70837 198.437296,143.159619 196.919889,143.592711 C194.722415,135.339856 191.723799,126.421934 187.913231,117.088577 C191.510033,108.012651 194.34162,99.2993322 196.435986,91.1441735 C199.114604,91.9088954 201.685195,92.7343148 204.116337,93.6304642 C227.863396,101.825222 242.081168,114.730685 242.081168,113.667995 C242.081168,112.474729 227.086456,124.713774 201.345213,132.491018 L201.345213,142.241309 L201.345213,142.241309 Z" fill="#00D8FF"></path>
    </g>
</svg>
